<?xml version="1.0" encoding="UTF-8"?>
<svg width="277px" height="241px" viewBox="0 0 277 241" version="1.1" xmlns="http://www.w3.org/2000/svg" xmlns:xlink="http://www.w3.org/1999/xlink">
    <title>undraw_coding_6mjf</title>
    <defs>
        <linearGradient x1="49.9992867%" y1="100.009217%" x2="49.9992867%" y2="-2.61975384e-15%" id="linearGradient-1">
            <stop stop-color="#808080" stop-opacity="0.25" offset="0%"></stop>
            <stop stop-color="#808080" stop-opacity="0.12" offset="54%"></stop>
            <stop stop-color="#808080" stop-opacity="0.1" offset="100%"></stop>
        </linearGradient>
    </defs>
    <g id="Welcome" stroke="none" stroke-width="1" fill="none" fill-rule="evenodd">
        <g id="Desktop-HD" transform="translate(-906.000000, -603.000000)">
            <g id="undraw_coding_6mjf" transform="translate(907.000000, 603.000000)">
                <rect id="Rectangle" fill="#6C63FF" fill-rule="nonzero" opacity="0.2" x="234" y="87" width="16" height="8"></rect>
                <rect id="Rectangle" fill="#6C63FF" fill-rule="nonzero" opacity="0.2" x="235" y="97" width="16" height="8"></rect>
                <rect id="Rectangle" fill="#6C63FF" fill-rule="nonzero" opacity="0.2" x="222" y="27" width="16" height="8"></rect>
                <rect id="Rectangle" fill="#6C63FF" fill-rule="nonzero" opacity="0.2" x="233" y="36" width="16" height="8"></rect>
                <rect id="Rectangle" fill="#6C63FF" fill-rule="nonzero" opacity="0.2" x="202" y="28" width="16" height="8"></rect>
                <rect id="Rectangle" fill="#6C63FF" fill-rule="nonzero" opacity="0.2" x="254" y="45" width="16" height="8"></rect>
                <rect id="Rectangle" fill="#6C63FF" fill-rule="nonzero" opacity="0.2" x="234" y="46" width="16" height="8"></rect>
                <rect id="Rectangle" fill="#6C63FF" fill-rule="nonzero" opacity="0.2" x="214" y="37" width="16" height="8"></rect>
                <rect id="Rectangle" fill="#6C63FF" fill-rule="nonzero" opacity="0.2" x="253" y="110" width="16" height="8"></rect>
                <rect id="Rectangle" fill="#6C63FF" fill-rule="nonzero" opacity="0.2" x="233" y="110" width="16" height="8"></rect>
                <path d="M40.5595845,84 C40.5595845,84 62.9681039,106.532122 50.3191689,139.953693 C37.6702338,173.375265 72,229 72,229 C72,229 71.6330983,228.944661 70.9512727,228.82476 C24.9295734,220.656136 2.06242688,167.730706 27.6660483,128.424773 C37.1688016,113.793805 44.9776921,96.6479942 40.5595845,84 Z" id="Path" fill="#6C63FF" fill-rule="nonzero"></path>
                <path d="M40.2401089,84 C40.2401089,84 53.0163311,111.620219 40.2401089,134.149266 C27.4638866,156.678314 38.050517,219.924434 72,229" id="Path" stroke="#535461" stroke-width="2"></path>
                <path d="M0,175.278615 C0,175.278615 25.5465149,171.226903 27.8742016,194.02539 C30.2018884,216.823876 77,219.984333 77,219.984333 C77,219.984333 76.6945293,220.191178 76.1232991,220.565322 C37.4843099,245.812479 0.549847265,236.65354 6.11857817,203.117408 C8.18661483,190.648963 8.01555124,178.125765 0,175.278615 Z" id="Path" fill="#6C63FF" fill-rule="nonzero"></path>
                <path d="M0,175.278615 C0,175.278615 25.5465149,171.226903 27.8742016,194.02539 C30.2018884,216.823876 77,219.984333 77,219.984333 C77,219.984333 76.6945293,220.191178 76.1232991,220.565322 C37.4843099,245.812479 0.549847265,236.65354 6.11857817,203.117408 C8.18661483,190.648963 8.01555124,178.125765 0,175.278615 Z" id="Path" fill="#F5F5F5" fill-rule="nonzero" opacity="0.2"></path>
                <path d="M0,176 C0,176 19.8281033,180.340365 18.1999445,198.31709 C16.5717856,216.293816 47.6473202,237.855531 77,220.765153" id="Path" stroke="#535461" stroke-width="2"></path>
                <rect id="Rectangle" fill="#6C63FF" fill-rule="nonzero" opacity="0.2" x="0" y="87" width="16" height="8"></rect>
                <rect id="Rectangle" fill="#6C63FF" fill-rule="nonzero" opacity="0.2" x="12" y="96" width="16" height="8"></rect>
                <rect id="Rectangle" fill="#6C63FF" fill-rule="nonzero" opacity="0.2" x="98" y="0" width="16" height="8"></rect>
                <rect id="Rectangle" fill="#6C63FF" fill-rule="nonzero" opacity="0.2" x="223" y="152" width="16" height="8"></rect>
                <rect id="Rectangle" fill="#6C63FF" fill-rule="nonzero" opacity="0.2" x="12" y="106" width="16" height="8"></rect>
                <rect id="Rectangle" fill="#6C63FF" fill-rule="nonzero" opacity="0.2" x="109" y="9" width="16" height="8"></rect>
                <rect id="Rectangle" fill="#6C63FF" fill-rule="nonzero" opacity="0.2" x="51" y="65" width="16" height="8"></rect>
                <rect id="Rectangle" fill="#6C63FF" fill-rule="nonzero" opacity="0.2" x="62" y="75" width="16" height="8"></rect>
                <rect id="Rectangle" fill="#6C63FF" fill-rule="nonzero" opacity="0.2" x="92" y="70" width="16" height="8"></rect>
                <rect id="Rectangle" fill="#6C63FF" fill-rule="nonzero" opacity="0.2" x="64" y="86" width="16" height="8"></rect>
                <rect id="Rectangle" fill="#6C63FF" fill-rule="nonzero" opacity="0.2" x="245" y="152" width="16" height="8"></rect>
                <path d="M221.515741,119.938557 C220.482105,114.169843 219.848186,108.336253 219.618535,102.479676 L219.618535,102.479676 C219.200377,92.5965687 212.629739,84.0450432 203.206781,81.120177 C201.530608,80.602968 199.685591,80.1196239 197.647169,79.6855378 C179.780276,75.8803576 174.35267,79.2021938 173.735618,79.6393585 C173.213058,78.6866853 172.758592,77.6980145 172.375646,76.6808001 C172.344947,76.5761268 172.317318,76.4714536 172.286619,76.3729376 C175.822727,72.5912835 177.977197,67.7199308 178.398815,62.5529911 C181.379701,59.5236243 183.120341,55.8662181 183.120341,51.928657 C183.120341,48.5421698 181.830978,45.365029 179.574592,42.6158171 L179.574592,37.2651673 C179.574592,31.0948613 177.130384,25.177275 172.779665,20.8142097 C168.428946,16.4511445 162.528106,14 156.37526,14 L154.493404,14 C148.340559,14 142.439718,16.4511445 138.088999,20.8142097 C133.738281,25.177275 131.294073,31.0948613 131.294073,37.2651673 L131.294073,43.0314315 C129.246441,45.6821274 128.086014,48.7084155 128.086014,51.9224998 C128.086014,55.776938 129.756046,59.3604572 132.623345,62.3528804 C133.015134,67.7090997 135.268311,72.7577273 138.990344,76.6192276 C139.11621,77.493557 139.245147,78.4325376 139.371013,79.4238547 L107.413221,86.1937506 C107.413221,86.1937506 95.0905905,86.7017237 87.1517959,103.126187 C80.4378965,117.038492 67.0776358,152.781325 63.1205182,163.421053 L63.1205182,163.421053 C62.4052285,165.348272 62,166.453498 62,166.453498 C62,166.453498 62.1320063,166.321117 62.3806692,166.093299 L62,167.130795 C62,167.130795 62.1934045,166.933763 62.561794,166.610508 C62.0030699,171.062199 61.9232522,178.706425 67.7376671,179.65772 C72.6126887,180.455083 85.174772,180.784496 94.6638726,180.916877 L94.6638726,180.916877 L95.3208339,180.916877 C101.611085,181 106.397079,181 106.397079,181 L106.397079,180.916877 L208.453262,180.916877 L208.453262,179.867066 C208.454409,178.914919 208.263305,177.972396 207.891468,177.096304 L208.032684,176.923901 C208.578815,177.647083 208.942209,178.492127 209.091804,179.386801 C209.08004,179.473819 209.063643,179.560143 209.042685,179.645405 L209.104083,179.488395 C209.128045,179.768002 209.107318,180.049653 209.042685,180.322703 C209.042685,180.322703 222.135863,146.491695 221.994647,126.289759 C222.032223,124.162366 221.871894,122.036093 221.515741,119.938557 L221.515741,119.938557 Z M139.902108,83.9956125 C139.733004,83.0305314 139.624321,82.0557791 139.576697,81.0770762 C139.576697,81.0770762 139.576697,81.0586045 139.576697,81.0493686 C139.690284,82.0006637 139.800801,82.9858236 139.902108,83.9956125 Z M100.232694,156.663471 L100.232694,164.72639 L95.1980374,165.806987 L100.232694,156.663471 Z" id="Shape" fill="url(#linearGradient-1)" fill-rule="nonzero"></path>
                <path d="M154,17 L154,17 C166.702549,17 177,27.3563377 177,40.1315277 L177,50 L131,50 L131,40.1315277 C131,27.3563377 141.297451,17 154,17 Z" id="Path" fill="#E14B5A" fill-rule="nonzero"></path>
                <ellipse id="Oval" fill="#E14B5A" fill-rule="nonzero" cx="154.5" cy="54" rx="26.5" ry="18"></ellipse>
                <path d="M136.872451,71.6561869 C136.872451,71.6561869 142.373024,100.417133 136.872451,108.173753 C131.371878,115.930372 153.679758,119 153.679758,119 L176.769941,110.598269 L180,89.9149697 C180,89.9149697 165.94298,81.996308 168.855228,66 L136.872451,71.6561869 Z" id="Path" fill="#F7C4A7" fill-rule="nonzero"></path>
                <path d="M205.892065,168.83772 C205.892065,168.83772 207.386186,175.34059 199.256411,176.508015 C194.456148,177.217815 189.574359,177.159244 184.792317,176.334479 L183,160 L201.911928,160 L205.892065,168.83772 Z" id="Path" fill="#F7C4A7" fill-rule="nonzero"></path>
                <path d="M64.7843624,160.113529 C64.7843624,160.113529 61.2191262,174.407994 69.2907711,175.699385 C77.3624159,176.990776 107,177 107,177 L107,160.088931 L93.5805008,162.917692 L80.9837485,151 L64.7843624,160.113529 Z" id="Path" fill="#F7C4A7" fill-rule="nonzero"></path>
                <path d="M139.353652,81.3969379 L108.433555,87.9304549 C108.433555,87.9304549 96.6471971,88.4158891 89.0584687,104.0658 C81.4697403,119.71571 65,164.412294 65,164.412294 C65,164.412294 79.0532007,150.21258 95.5168309,165.380109 L106.496658,145.535315 L104.074008,177 L189.150863,177 L189.150863,162.15304 C189.150863,162.15304 206.909832,171.672436 205.620604,176.996947 C205.620604,176.996947 220.819446,137.863012 217.535274,120.079022 C216.54664,114.581186 215.94029,109.021513 215.720578,103.439925 L215.720578,103.439925 C215.323163,94.0200676 209.037498,85.8692082 200.023764,83.0852719 C198.422921,82.5937316 196.663216,82.1327218 194.707988,81.7205607 C176.463267,77.8492992 171.79516,81.7205607 171.79516,81.7205607 C171.79516,81.7205607 168.260475,93.2122234 168.324631,98.4207187 C168.404062,105.116047 158.799005,109.555175 158.799005,109.555175 C158.799005,109.555175 144.589997,106.166295 143.945383,103.42466 C143.300768,100.683025 138.217176,84.6240068 139.353652,81.3969379 Z" id="Path" fill="#000000" fill-rule="nonzero" opacity="0.1"></path>
                <path d="M139.355222,80.3969818 L108.435743,86.9307045 C108.435743,86.9307045 96.6496201,87.416154 89.0610433,103.066557 C81.4724664,118.71696 65,163.421057 65,163.421057 C65,163.421057 79.0529201,149.220896 95.5162216,164.388903 L106.495829,144.543484 L104.073228,176 L189.151439,176 L189.151439,161.155626 C189.151439,161.155626 206.910053,170.675321 205.620851,176 C205.620851,176 220.819389,136.864833 217.535283,119.080284 C216.546669,113.582274 215.940332,108.022426 215.720623,102.440663 L215.720623,102.440663 C215.323216,93.0205089 209.037677,84.8693929 200.024123,82.0853691 C198.423312,81.5938133 196.663642,81.1327889 194.708453,80.7206148 C176.464097,76.8492315 171.796083,80.7206148 171.796083,80.7206148 C171.796083,80.7206148 168.261468,92.2126392 168.325623,97.4212985 C168.405052,104.116838 158.800187,108.556105 158.800187,108.556105 C158.800187,108.556105 144.591463,105.167118 143.946861,102.425397 C143.30226,99.6836764 138.218769,83.6241523 139.355222,80.3969818 Z" id="Path" fill="#575988" fill-rule="nonzero"></path>
                <path d="M171,78.2102018 C169.693949,74.6139892 169.401194,70.7433747 170.152113,67 L138,72.5244305 C138,72.5244305 138.46388,74.8877752 138.989201,78.4283107 C143.187472,82.6652316 148.989701,85.040702 155.039658,84.9994721 C161.089614,84.9582422 166.857046,82.5039255 170.993856,78.2102018 L171,78.2102018 Z" id="Path" fill="#000000" fill-rule="nonzero" opacity="0.1"></path>
                <path d="M176,62.0472625 C175.947725,74.0828204 166.272721,83.8526584 154.261986,83.998352 C142.25125,84.1440455 132.343041,74.6117573 132,62.5809947 C132,62.403084 132,62.2251733 132,62.0472625 C131.997959,53.6248835 136.78399,45.9368998 144.33396,42.2347553 C144.993159,41.9116531 145.670726,41.62127 146.36666,41.3636062 C149.986311,40.0303313 153.890541,39.6666164 157.693453,40.3084115 L157.693453,40.3084115 C167.726539,42.020269 175.27568,50.408083 175.941835,60.5841001 C175.980612,61.0687535 176,61.5564743 176,62.0472625 Z" id="Path" fill="#F7C4A7" fill-rule="nonzero"></path>
                <g id="Group" opacity="0.1" transform="translate(132.000000, 41.000000)" fill="#000000" fill-rule="nonzero">
                    <path d="M14.3427778,1.37689189 L14.3733333,1.35824324 C13.6787037,1.61932432 13.0024074,1.91355856 12.3444444,2.24094595 C4.80863036,5.99219006 0.0315728535,13.7821355 0.0336104591,22.3162162 C0.0336104591,22.4964865 0.0336104591,22.6767568 0.0336104591,22.857027 C0.716427901,22.8382533 1.38779969,22.674141 2.00444444,22.3752703 C7.35777778,19.8328378 10.56,12.0563514 11.8311111,6.6327027 C12.2894444,4.69013514 12.7202778,2.50202703 14.3427778,1.37689189 Z" id="Path"></path>
                    <path d="M31.1513889,2.00162162 C29.4131287,1.18933363 27.577241,0.613523802 25.6911111,0.289054054 C27.2379636,0.651108748 28.6193254,1.53382626 29.6113889,2.79418919 C30.0975787,3.46676665 30.5008652,4.19744311 30.8122222,4.96986486 C24.8969528,2.33900445 18.1446841,2.48103094 12.3413889,5.35837838 C13.7194444,8.4322973 17.9941667,10.1075676 20.8480556,11.2295946 C23.9728704,12.4562613 27.1302778,13.5782883 30.3202778,14.5956757 L27.4969444,12.2645946 L33.8738889,13.2964865 C33.9425153,12.0055455 33.7915968,10.7122408 33.4277778,9.47351351 C34.65,10.4743243 36.2694444,10.81 37.5955556,11.6491892 C40.0797222,13.2436486 41.1155556,16.3113514 42.4691667,18.9687838 C42.8266667,19.6712162 43.2483333,20.3891892 43.8930556,20.8336486 C43.3620469,12.6545794 38.4721601,5.42738659 31.1513889,2.00162162 L31.1513889,2.00162162 Z" id="Path"></path>
                </g>
                <path d="M145.970168,42.018216 L146,42 C145.321827,42.2550239 144.661553,42.5424317 144.019178,42.8622235 C136.661895,46.5264367 131.998011,54.1356511 132,62.4717363 C132,62.6478242 132,62.8239121 132,63 C132.666641,62.9816618 133.322107,62.821357 133.924143,62.5294203 C139.15065,60.0459737 142.277008,52.449906 143.518006,47.1520891 C143.965481,45.2667341 144.386107,43.1202834 145.970168,42.018216 Z" id="Path" fill="#632652" fill-rule="nonzero"></path>
                <path d="M164.077281,42.667171 C162.314321,41.876415 160.452346,41.3158687 158.539415,41 C160.108248,41.3524574 161.509238,42.2117759 162.515398,43.4387292 C163.008496,44.093478 163.417513,44.8047858 163.733295,45.5567322 C157.733972,42.9956105 150.885757,43.1338721 145,45.934947 C146.397637,48.9273828 150.733101,50.5582451 153.627542,51.6505295 C156.796759,52.8446798 159.999032,53.9369642 163.23436,54.9273828 L160.370908,52.6580938 L166.838466,53.6626324 C166.908068,52.4059115 166.755005,51.1468897 166.386016,49.9409985 C167.625605,50.9152799 169.268061,51.2420575 170.613016,52.0590015 C173.132481,53.6111952 174.183033,56.5975794 175.555878,59.1845688 C175.918458,59.8683812 176.346117,60.5673222 177,61 C176.461446,53.0377409 171.502076,46.002126 164.077281,42.667171 Z" id="Path" fill="#632652" fill-rule="nonzero"></path>
                <path d="M129,59 C129,59 151.717875,30.7542074 178,59 L175.728213,52.6723284 C175.728213,52.6723284 163.39609,34.6625655 154.637429,38.5494322 C145.878767,42.4362988 137.276674,45.2025444 137.276674,45.2025444 L129,59 Z" id="Path" fill="#000000" fill-rule="nonzero" opacity="0.1"></path>
                <path d="M129,58 C129,58 151.717875,29.7542074 178,58 L175.728213,51.6723284 C175.728213,51.6723284 163.39609,33.6625655 154.637429,37.5494322 C145.878767,41.4362988 137.276674,44.2025444 137.276674,44.2025444 L129,58 Z" id="Path" fill="#E14B5A" fill-rule="nonzero"></path>
                <path d="M111.056756,119 C111.056756,119 106.189263,131.91329 113.003753,143.534639 C119.818244,155.155989 107,160 107,160" id="Path" fill="#000000" fill-rule="nonzero" opacity="0.1"></path>
                <path d="M190.254,107 C190.254,107 198.610929,117.729816 193.146081,127.321435 C187.681234,136.913054 188.00359,160 188.00359,160" id="Path" fill="#000000" fill-rule="nonzero" opacity="0.1"></path>
                <path d="M103.760359,170 L197.236581,170 C201.524199,170 205,173.581722 205,178 L205,178 L96,178 L96,178 C96,173.582953 99.4739363,170.001741 103.760359,170 Z" id="Path" fill="#535461" fill-rule="nonzero"></path>
                <path d="M113.016059,116 L187.983941,116 C191.170798,116 194.22713,117.25397 196.480578,119.48605 C198.734026,121.718131 200,124.745481 200,127.90212 L200,171 L101,171 L101,127.90212 C101,121.32876 106.379773,116 113.016059,116 Z" id="Path" fill="#535461" fill-rule="nonzero"></path>
                <circle id="Oval" fill="#FFFFFF" fill-rule="nonzero" cx="151" cy="146" r="6"></circle>
                <path d="M131,45 C131,45 153.131128,22.7736537 177,44.5932713" id="Path" stroke="#000000" opacity="0.1"></path>
                <rect id="Rectangle" fill="#6A5C99" fill-rule="nonzero" x="180" y="44" width="3" height="13"></rect>
                <path d="M178,52 L178,52 C182.418278,52 186,55.4700087 186,59.7504813 L186,60.2495187 C186,64.5299913 182.418278,68 178,68 L178,68 L178,52 Z" id="Path" fill="#FFD037" fill-rule="nonzero"></path>
                <rect id="Rectangle" fill="#6A5C99" fill-rule="nonzero" x="177" y="51" width="3" height="18" rx="1.5"></rect>
                <rect id="Rectangle" fill="#6A5C99" fill-rule="nonzero" transform="translate(126.500000, 50.500000) rotate(-180.000000) translate(-126.500000, -50.500000) " x="125" y="44" width="3" height="13"></rect>
                <path d="M123,53 L123,53 C127.418278,53 131,56.4700087 131,60.7504813 L131,61.2495187 C131,63.3050741 130.157145,65.2764394 128.656854,66.7299366 C127.156563,68.1834338 125.121732,69 123,69 L123,69 L123,53 Z" id="Path" fill="#FFD037" fill-rule="nonzero" transform="translate(127.000000, 61.000000) rotate(180.000000) translate(-127.000000, -61.000000) "></path>
                <rect id="Rectangle" fill="#6A5C99" fill-rule="nonzero" transform="translate(130.500000, 61.000000) rotate(-180.000000) translate(-130.500000, -61.000000) " x="129" y="52" width="3" height="18" rx="1.5"></rect>
                <path d="M180.877173,30.347582 C177.849255,24.1334197 171.254579,16.6196028 157.039593,16.0181347 L157.039593,16 L156.868144,16 L156.868144,16 L151.83182,16.2357513 L151.83182,16.2599309 C137.711743,16.9006908 131.147683,24.3873057 128.12895,30.5803109 C126.118434,34.7786295 125.051071,39.3564223 125,44 L126.738986,43.9576857 L128.477972,43.9183938 C128.553003,39.7842519 129.516184,35.7129326 131.303824,31.9736615 C135.136942,24.1999136 142.190857,20.0682211 152.266566,19.6843696 L152.266566,19.6843696 L156.721187,19.4395509 L156.721187,19.4395509 C166.80302,19.82038 173.859997,23.9581174 177.690052,31.7288428 C179.48065,35.4695042 180.445944,39.5429927 180.522028,43.67962 L182.261014,43.7189119 L184,43.7612263 C183.949964,39.1201391 182.884716,34.5445209 180.877173,30.347582 L180.877173,30.347582 Z" id="Path" fill="#FFD037" fill-rule="nonzero"></path>
                <rect id="Rectangle" fill="#D6D6E3" fill-rule="nonzero" x="22" y="177" width="238" height="64"></rect>
                <rect id="Rectangle" fill="#000000" fill-rule="nonzero" opacity="0.1" x="22" y="182" width="238" height="8"></rect>
                <rect id="Rectangle" fill="#D6D6E3" fill-rule="nonzero" x="7" y="177" width="269" height="8"></rect>
            </g>
        </g>
    </g>
</svg>