<?xml version="1.0" encoding="UTF-8"?>
<svg width="595px" height="247px" viewBox="0 0 595 247" version="1.1" xmlns="http://www.w3.org/2000/svg" xmlns:xlink="http://www.w3.org/1999/xlink">
    <title>undraw_code_thinking_1jeh</title>
    <g id="Welcome" stroke="none" stroke-width="1" fill="none" fill-rule="evenodd">
        <g id="hero-with-illustration" transform="translate(-125.000000, -158.000000)" fill-rule="nonzero">
            <g id="undraw_code_thinking_1jeh" transform="translate(125.000000, 158.000000)">
                <polygon id="Path" fill="#FFB9B9" points="42.6364386 214.889092 29 214 33.5454795 234 49 227.777969"></polygon>
                <polygon id="Path" fill="#2F2E41" points="167.53888 176.025097 135.858077 145 117.754214 159.144029 82 202.487727 86.0734103 208.875069 129.521479 179.218767 158.939641 218 187 203.856522"></polygon>
                <polygon id="Path" fill="#000000" opacity="0.1" points="167.53888 176.025097 135.858077 145 117.754214 159.144029 82 202.487727 86.0734103 208.875069 129.521479 179.218767 158.939641 218 187 203.856522"></polygon>
                <path d="M170,196.770853 L165.939849,200 L133.007519,188.467337 L125.338346,185.238196 L110,188.467337 C110,188.467337 110,175.55076 124.436092,176.012069 L139.323308,179.702518 L156.917319,181.086438 L170,196.770853 Z" id="Path" fill="#FFB9B9"></path>
                <polygon id="Path" fill="#2F2E41" points="200 229.688659 190.034062 236 178.256284 236 123.444444 215.712923 43.26521 230.139313 41 213.007906 114.3847 181 178.709654 202.188386"></polygon>
                <path d="M134.595299,149.614947 L127.725191,151 L126.228096,149.239356 C123.804867,146.389545 123.311945,142.353339 124.977148,138.996174 L124.977148,138.996174 L144.213444,113.60343 C144.213444,113.60343 149.70953,101.137899 158.411662,106.216447 C167.113795,111.294995 151.083551,119.605349 151.083551,119.605349 L141.465401,134.840997 L142.381413,142.689663 L134.595299,149.614947 Z" id="Path" fill="#FFB9B9"></path>
                <circle id="Oval" fill="#FFB9B9" cx="178.5" cy="102.5" r="17.5"></circle>
                <path d="M170,114.74154 L178.262292,135 L198,126.519721 C198,126.519721 191.57377,110.501409 191.57377,110.030281 C191.57377,109.559152 170,114.74154 170,114.74154 Z" id="Path" fill="#FFB9B9"></path>
                <path d="M224,172.637154 C224,183.314514 222.319927,193.925172 219.022202,204.078861 L217.699628,208.152559 L211.358475,237.185448 L204.564391,239 L199.582061,232.649057 L189.617396,225.390864 L182.370371,213.596237 L176.156059,203.226057 L174.217464,199.987058 L167.423375,165.964137 L141.605842,151.447709 L133,150.086792 L134.811759,145.096765 L142.511725,134.663071 L150.211674,133.755768 L152.476368,131.941216 L154.288127,132.848492 L161.535152,128.765741 L163.799846,129.673023 L177.043787,130.906908 L185.088007,129.219382 L196.656052,123 L201.393804,123.775731 L217.699595,137.3849 C221.868044,148.669115 224.001337,160.605396 224,172.637154 L224,172.637154 Z" id="Path" fill="#575A89"></path>
                <path d="M33.0373848,221.418736 C33.0373848,221.418736 37.0911095,214.521032 35.3789053,213.715739 C33.6667011,212.910446 26.3952382,209.70012 26.3952382,209.70012 L15.7317641,206.152199 C15.7317641,206.152199 0.3450123,183.193483 0.00727074641,203.158712 C-0.330470807,223.12394 11.2107035,227.923153 11.2107035,227.923153 C11.2107035,227.923153 21.5040389,250.163283 27.3347622,246.61685 C33.1654855,243.070418 39,231.031754 39,231.031754 C39,231.031754 28.4854096,225.356974 33.0373848,221.418736 Z" id="Path" fill="#2F2E41"></path>
                <polygon id="Path" fill="#000000" opacity="0.1" points="220 168.652759 202.54034 179.930624 176.480252 203 174.513694 199.779077 169 172.712856 170.378423 172.712856 184.621947 147"></polygon>
                <polygon id="Path" fill="#575A89" points="184.753696 144 170.563217 169.827924 165.528188 169.827924 162.324029 178.890373 155 180.7033 174.683087 202 202.605361 177.077992 220 165.749658"></polygon>
                <path d="M165.110217,88.7819302 L163.203673,89.5143328 C162.611269,89.1138537 162.205284,88.4921144 162.077274,87.7893296 C161.949265,87.0865449 162.110012,86.3618964 162.523262,85.778807 L159,85.6141879 C163.57498,79.5304259 170.5429,75.6971824 178.137797,75.0859617 C185.732695,74.4747409 193.225559,77.144212 198.717386,82.4178193 C198.877793,81.866203 200.626417,82.9394153 201.340325,84.0276131 C201.580204,83.1300142 203.219758,87.4690562 203.79966,90.5361789 C204.068134,89.5149536 205.100391,91.1635839 204.196048,92.7455137 C204.769056,92.6619218 205.027888,94.1257088 204.584298,94.941197 C205.211158,94.6471469 205.105507,96.3944799 204.425827,97.5621966 C205.320343,97.4828412 197.3711,109.801081 194.152579,117 C193.218027,112.712624 192.167249,108.197936 189.153775,105.004301 C188.64156,104.461457 188.080642,103.967023 187.520635,103.473465 L184.491765,100.80399 C180.969757,97.6998992 177.765891,93.8688179 173.073972,92.7086812 C169.849556,91.9114078 167.810774,91.7314001 169.567988,88.1036327 C167.980387,88.7651258 166.497827,89.7488378 164.895992,90.3632284 C164.917507,89.8563349 165.14138,89.2891068 165.110217,88.7819302 Z" id="Path" fill="#2F2E41"></path>
                <circle id="Oval" fill="#FFB9B9" cx="187" cy="104" r="3"></circle>
                <rect id="Rectangle" fill="#6C63FF" x="98" y="32" width="16" height="16"></rect>
                <path d="M122,39 L104,39 L104,21 L122,21 L122,39 Z M104.782608,38.2173918 L121.217392,38.2173918 L121.217392,21.7826082 L104.782608,21.7826082 L104.782608,38.2173918 Z" id="Shape" fill="#3F3D56"></path>
                <polygon id="Rectangle" fill="#6C63FF" transform="translate(35.176909, 89.774718) rotate(74.063170) translate(-35.176909, -89.774718) " points="27.4938141 82.0855483 42.8637816 82.0817711 42.8600045 97.4638874 27.490037 97.4676645"></polygon>
                <path d="M41.1088607,106 L36,88.108865 L53.8911393,83 L59,100.891135 L41.1088607,106 Z M36.9999995,88.6646123 L41.6646136,104.999999 L57.9999995,100.335388 L53.3353864,83.9999993 L36.9999995,88.6646123 Z" id="Shape" fill="#3F3D56"></path>
                <polygon id="Rectangle" fill="#6C63FF" transform="translate(40.494149, 15.362957) rotate(133.062810) translate(-40.494149, -15.362957) " points="32.8028013 7.67112599 48.1783598 7.67826261 48.1854964 23.0547878 32.8099379 23.0476512"></polygon>
                <path d="M30,28.4397069 L42.5602985,15 L56,27.5602985 L43.4397069,41 L30,28.4397069 Z M42.5985336,16.1304393 L31.1304393,28.4014718 L43.4014772,39.8695445 L54.8695716,27.598512 L42.5985336,16.1304393 Z" id="Shape" fill="#3F3D56"></path>
                <path d="M563.321311,2.94594639 L420.235297,2.94594639 L420.235297,0 L355.354542,0 L355.354542,2.94594639 L211.678689,2.94594639 C209.111741,2.94594493 206.649927,3.96456107 204.834821,5.77771056 C203.019714,7.59086005 202,10.0500189 202,12.6141995 L202,208.331697 C202,210.895884 203.019705,213.355052 204.834811,215.16821 C206.649918,216.981369 209.111734,218 211.678689,218 L563.321311,218 C568.666711,218 573,213.671351 573,208.331714 L573,12.6141995 C573,10.0500189 571.980286,7.59086005 570.165179,5.77771056 C568.350073,3.96456107 565.888259,2.94594493 563.321311,2.94594639 Z" id="Path" fill="#3F3D56"></path>
                <rect id="Rectangle" fill="#6C63FF" x="216" y="20" width="344" height="194"></rect>
                <circle id="Oval" fill="#6C63FF" cx="388.5" cy="11.5" r="3.5"></circle>
                <polygon id="Path" fill="#000000" opacity="0.1" points="462 214 216 214 216 20"></polygon>
                <circle id="Oval" fill="#F2F2F2" cx="269.5" cy="166.5" r="33.5"></circle>
                <path d="M277.000599,192 C260.417889,192 245.468019,182.010816 239.122091,166.690389 C232.776164,151.369963 236.283899,133.735389 248.009647,122.009643 C259.735394,110.283897 277.369969,106.776164 292.690394,113.122094 C308.01082,119.468024 318,134.417894 318,151.000605 C317.974365,173.633321 299.633315,191.974368 277.000599,192 L277.000599,192 Z M277.000599,110.537145 C254.653247,110.537145 236.537139,128.653253 236.537139,151.000605 C236.537139,173.347957 254.653247,191.464065 277.000599,191.464065 C299.347951,191.464065 317.464059,173.347957 317.464059,151.000605 C317.438813,128.663718 299.337485,110.562391 277.000599,110.537145 L277.000599,110.537145 Z" id="Shape" fill="#3F3D56"></path>
                <rect id="Rectangle" fill="#3F3D56" x="468" y="124" width="32" height="7"></rect>
                <rect id="Rectangle" fill="#3F3D56" x="430" y="73" width="110" height="3"></rect>
                <rect id="Rectangle" fill="#3F3D56" x="430" y="81" width="110" height="3"></rect>
                <rect id="Rectangle" fill="#3F3D56" x="430" y="91" width="110" height="3"></rect>
                <rect id="Rectangle" fill="#3F3D56" x="430" y="100" width="110" height="3"></rect>
                <rect id="Rectangle" fill="#3F3D56" x="430" y="109" width="110" height="3"></rect>
                <rect id="Rectangle" fill="#F2F2F2" x="526" y="25" width="13" height="13"></rect>
                <path d="M546,44 L529,44 L529,27 L546,27 L546,44 Z M529.739157,43.2608944 L545.260872,43.2608944 L545.260872,27.739157 L529.739157,27.739157 L529.739157,43.2608944 Z" id="Shape" fill="#3F3D56"></path>
                <path d="M583.453899,210.980026 L549.777773,210.980026 L549.777773,208.493103 C549.777779,208.362323 549.727096,208.236898 549.636874,208.144422 C549.546652,208.051946 549.424282,208 549.296688,208 L537.750588,208 C537.622994,208 537.500626,208.051948 537.410404,208.144423 C537.320183,208.236899 537.269499,208.362323 537.269503,208.493103 L537.269503,210.980026 L530.053189,210.980026 L530.053189,208.493103 C530.053194,208.362323 530.00251,208.236899 529.912288,208.144423 C529.822066,208.051948 529.699698,208 529.572105,208 L518.026004,208 C517.89841,208 517.77604,208.051946 517.685817,208.144421 C517.595594,208.236897 517.544909,208.362322 517.544913,208.493103 L517.544913,210.980026 L510.328605,210.980026 L510.328605,208.493103 C510.32861,208.362322 510.277925,208.236897 510.187702,208.144421 C510.097479,208.051946 509.975109,208 509.847515,208 L498.301414,208 C498.173821,208 498.051453,208.051948 497.961231,208.144423 C497.871009,208.236899 497.820325,208.362323 497.82033,208.493103 L497.82033,210.980026 L490.604016,210.980026 L490.604016,208.493103 C490.60402,208.362323 490.553336,208.236899 490.463115,208.144423 C490.372893,208.051948 490.250525,208 490.122931,208 L478.57682,208 C478.449226,208 478.326856,208.051946 478.236634,208.144422 C478.146412,208.236898 478.095729,208.362323 478.095734,208.493103 L478.095734,210.980026 L470.879432,210.980026 L470.879432,208.493103 C470.879436,208.362322 470.828752,208.236897 470.738529,208.144421 C470.648306,208.051946 470.525936,208 470.398341,208 L458.852246,208 C458.724652,208 458.602282,208.051946 458.512059,208.144421 C458.421836,208.236897 458.371152,208.362322 458.371156,208.493103 L458.371156,210.980026 L451.154842,210.980026 L451.154842,208.493103 C451.154847,208.362323 451.104163,208.236899 451.013941,208.144423 C450.923719,208.051948 450.801351,208 450.673757,208 L439.127657,208 C439.000063,208 438.877695,208.051948 438.787473,208.144423 C438.697252,208.236899 438.646568,208.362323 438.646572,208.493103 L438.646572,210.980026 L431.43027,210.980026 L431.43027,208.493103 C431.430274,208.362323 431.37959,208.236899 431.289368,208.144423 C431.199146,208.051948 431.076778,208 430.949185,208 L340.504726,208 C340.377132,208 340.254764,208.051948 340.164542,208.144423 C340.074321,208.236899 340.023637,208.362323 340.023641,208.493103 L340.023641,210.980026 L332.807327,210.980026 L332.807327,208.493103 C332.807332,208.362322 332.756647,208.236897 332.666424,208.144421 C332.576201,208.051946 332.453831,208 332.326237,208 L320.780169,208 C320.652575,208 320.530205,208.051946 320.439982,208.144421 C320.349759,208.236897 320.299075,208.362322 320.299079,208.493103 L320.299079,210.980026 L313.082738,210.980026 L313.082738,208.493103 C313.082744,208.362323 313.03206,208.236898 312.941838,208.144422 C312.851616,208.051946 312.729247,208 312.601653,208 L301.055552,208 C300.927959,208 300.805591,208.051948 300.715369,208.144423 C300.625147,208.236899 300.574463,208.362323 300.574468,208.493103 L300.574468,210.980026 L293.358154,210.980026 L293.358154,208.493103 C293.358158,208.362323 293.307474,208.236899 293.217253,208.144423 C293.127031,208.051948 293.004663,208 292.877069,208 L281.330968,208 C281.203374,208 281.081004,208.051946 280.990781,208.144421 C280.900558,208.236897 280.849874,208.362322 280.849878,208.493103 L280.849878,210.980026 L273.63357,210.980026 L273.63357,208.493103 C273.633574,208.362322 273.58289,208.236897 273.492667,208.144421 C273.402444,208.051946 273.280074,208 273.152479,208 L261.606379,208 C261.478785,208 261.356417,208.051948 261.266195,208.144423 C261.175974,208.236899 261.12529,208.362323 261.125294,208.493103 L261.125294,210.980026 L253.908969,210.980026 L253.908969,208.493103 C253.908974,208.362323 253.85829,208.236899 253.768068,208.144423 C253.677846,208.051948 253.555478,208 253.427884,208 L241.881795,208 C241.754201,208 241.631832,208.051946 241.54161,208.144422 C241.451388,208.236898 241.400704,208.362323 241.40071,208.493103 L241.40071,210.980026 L234.184396,210.980026 L234.184396,208.493103 C234.184401,208.362322 234.133716,208.236897 234.043493,208.144421 C233.95327,208.051946 233.8309,208 233.703306,208 L222.157211,208 C222.029617,208 221.907247,208.051946 221.817024,208.144421 C221.726801,208.236897 221.676116,208.362322 221.67612,208.493103 L221.67612,210.980026 L199.546095,210.980026 C193.169363,210.980032 188,216.278465 188,222.814414 L188,228.165646 C188,234.701582 193.169375,240 199.546095,240 L583.453899,240 C589.830621,240 595,234.701583 595,228.165646 L595,222.814414 C595,216.278464 589.830632,210.980032 583.453899,210.980026 Z" id="Path" fill="#3F3D56"></path>
            </g>
        </g>
    </g>
</svg>