<?xml version="1.0" encoding="UTF-8"?>
<svg width="422px" height="320px" viewBox="0 0 422 320" version="1.1" xmlns="http://www.w3.org/2000/svg" xmlns:xlink="http://www.w3.org/1999/xlink">
    <title>undraw_code_review_l1q9</title>
    <g id="Welcome" stroke="none" stroke-width="1" fill="none" fill-rule="evenodd">
        <g id="Desktop-HD" transform="translate(-193.000000, -939.000000)">
            <g id="undraw_code_review_l1q9" transform="translate(193.000000, 939.000000)">
                <ellipse id="Oval" fill="#3F3D56" fill-rule="nonzero" cx="212" cy="283" rx="189" ry="12"></ellipse>
                <ellipse id="Oval" fill="#000000" fill-rule="nonzero" opacity="0.1" cx="212" cy="282.5" rx="161" ry="7.5"></ellipse>
                <rect id="Rectangle" fill="#3F3D56" fill-rule="nonzero" x="74" y="61" width="281" height="220"></rect>
                <path d="M211.16054,91 L141.843006,91 C141.54204,91.0003759 141.263665,90.9051592 141.112999,90.7503041 C140.962334,90.5954491 140.962334,90.4045509 141.112999,90.2496959 C141.263665,90.0948408 141.54204,89.9996241 141.843006,90 L211.16054,90 C211.624447,90.0005822 212,90.2242691 212,90.5 C212,90.7757309 211.624447,90.9994178 211.16054,91 L211.16054,91 Z" id="Path" fill="#F2F2F2" fill-rule="nonzero"></path>
                <path d="M287.156534,99 L177.843465,99 C177.377632,99 177,98.7761424 177,98.5 C177,98.2238576 177.377632,98 177.843465,98 L287.156534,98 C287.457876,98 287.736326,98.0952994 287.886997,98.25 C288.037668,98.4047005 288.037668,98.5952995 287.886997,98.75 C287.736326,98.9047006 287.457876,99 287.156534,99 Z" id="Path" fill="#F2F2F2" fill-rule="nonzero"></path>
                <path d="M211.158767,109 L141.841233,109 C141.376633,109 141,108.776142 141,108.5 C141,108.223858 141.376633,108 141.841233,108 L211.158767,108 C211.623367,108 212,108.223858 212,108.5 C212,108.776142 211.623367,109 211.158767,109 L211.158767,109 Z" id="Path" fill="#F2F2F2" fill-rule="nonzero"></path>
                <path d="M287.158767,109 L217.841233,109 C217.376633,109 217,108.776142 217,108.5 C217,108.223858 217.376633,108 217.841233,108 L287.158767,108 C287.623367,108 288,108.223858 288,108.5 C288,108.776142 287.623367,109 287.158767,109 L287.158767,109 Z" id="Path" fill="#F2F2F2" fill-rule="nonzero"></path>
                <path d="M212.158767,118 L142.841233,118 C142.376633,118 142,117.776142 142,117.5 C142,117.223858 142.376633,117 142.841233,117 L212.158767,117 C212.623367,117 213,117.223858 213,117.5 C213,117.776142 212.623367,118 212.158767,118 Z" id="Path" fill="#F2F2F2" fill-rule="nonzero"></path>
                <path d="M212.158767,128 L142.841233,128 C142.376633,128 142,127.776142 142,127.5 C142,127.223858 142.376633,127 142.841233,127 L212.158767,127 C212.623367,127 213,127.223858 213,127.5 C213,127.776142 212.623367,128 212.158767,128 L212.158767,128 Z" id="Path" fill="#F2F2F2" fill-rule="nonzero"></path>
                <path d="M243.179687,91 L223.820313,91 C223.367267,91 223,90.7761424 223,90.5 C223,90.2238576 223.367267,90 223.820313,90 L243.179687,90 C243.632733,90 244,90.2238576 244,90.5 C244,90.7761424 243.632733,91 243.179687,91 L243.179687,91 Z" id="Path" fill="#F2F2F2" fill-rule="nonzero"></path>
                <path d="M243.179687,118 L223.820313,118 C223.367267,118 223,117.776142 223,117.5 C223,117.223858 223.367267,117 223.820313,117 L243.179687,117 C243.632733,117 244,117.223858 244,117.5 C244,117.776142 243.632733,118 243.179687,118 L243.179687,118 Z" id="Path" fill="#F2F2F2" fill-rule="nonzero"></path>
                <path d="M243.178094,127 L223.821906,127 C223.528474,127.000376 223.257066,126.905159 223.110171,126.750304 C222.963276,126.595449 222.963276,126.404551 223.110171,126.249696 C223.257066,126.094841 223.528474,125.999624 223.821906,126 L243.178094,126 C243.471526,125.999624 243.742934,126.094841 243.889829,126.249696 C244.036724,126.404551 244.036724,126.595449 243.889829,126.750304 C243.742934,126.905159 243.471526,127.000376 243.178094,127 L243.178094,127 Z" id="Path" fill="#F2F2F2" fill-rule="nonzero"></path>
                <path d="M277.177958,127 L257.818584,127 C257.366214,126.999418 257,126.775731 257,126.5 C257,126.224269 257.366214,126.000582 257.818584,126 L277.177958,126 C277.471439,125.999624 277.742891,126.094841 277.889811,126.249696 C278.03673,126.404551 278.03673,126.595449 277.889811,126.750304 C277.742891,126.905159 277.471439,127.000376 277.177958,127 Z" id="Path" fill="#F2F2F2" fill-rule="nonzero"></path>
                <path d="M161.179687,99 L141.820313,99 C141.367267,99 141,98.7761424 141,98.5 C141,98.2238576 141.367267,98 141.820313,98 L161.179687,98 C161.632733,98 162,98.2238576 162,98.5 C162,98.7761424 161.632733,99 161.179687,99 Z" id="Path" fill="#F2F2F2" fill-rule="nonzero"></path>
                <path d="M211.158767,226 L141.841233,226 C141.376633,226 141,225.776142 141,225.5 C141,225.223858 141.376633,225 141.841233,225 L211.158767,225 C211.623367,225 212,225.223858 212,225.5 C212,225.776142 211.623367,226 211.158767,226 Z" id="Path" fill="#F2F2F2" fill-rule="nonzero"></path>
                <path d="M211.158767,245 L141.841233,245 C141.376633,245 141,244.776142 141,244.5 C141,244.223858 141.376633,244 141.841233,244 L211.158767,244 C211.623367,244 212,244.223858 212,244.5 C212,244.776142 211.623367,245 211.158767,245 Z" id="Path" fill="#F2F2F2" fill-rule="nonzero"></path>
                <path d="M211.157036,255 L141.842964,255 C141.542013,255.000376 141.263652,254.905159 141.112994,254.750304 C140.962335,254.595449 140.962335,254.404551 141.112994,254.249696 C141.263652,254.094841 141.542013,253.999624 141.842964,254 L211.157036,254 C211.457987,253.999624 211.736348,254.094841 211.887006,254.249696 C212.037665,254.404551 212.037665,254.595449 211.887006,254.750304 C211.736348,254.905159 211.457987,255.000376 211.157036,255 Z" id="Path" fill="#F2F2F2" fill-rule="nonzero"></path>
                <path d="M240.179687,245 L220.820313,245 C220.367267,245 220,244.776142 220,244.5 C220,244.223858 220.367267,244 220.820313,244 L240.179687,244 C240.632733,244 241,244.223858 241,244.5 C241,244.776142 240.632733,245 240.179687,245 Z" id="Path" fill="#F2F2F2" fill-rule="nonzero"></path>
                <path d="M240.179689,255 L220.820311,255 C220.367266,255 220,254.776142 220,254.5 C220,254.223858 220.367266,254 220.820311,254 L240.179689,254 C240.632734,254 241,254.223858 241,254.5 C241,254.776142 240.632734,255 240.179689,255 L240.179689,255 Z" id="Path" fill="#F2F2F2" fill-rule="nonzero"></path>
                <path d="M274.179687,245 L254.820313,245 C254.367267,245 254,244.776142 254,244.5 C254,244.223858 254.367267,244 254.820313,244 L274.179687,244 C274.632733,244 275,244.223858 275,244.5 C275,244.776142 274.632733,245 274.179687,245 L274.179687,245 Z" id="Path" fill="#F2F2F2" fill-rule="nonzero"></path>
                <path d="M287.156534,236 L177.843466,236 C177.377632,236 177,235.776142 177,235.5 C177,235.223858 177.377632,235 177.843466,235 L287.156534,235 C287.622368,235 288,235.223858 288,235.5 C288,235.776142 287.622368,236 287.156534,236 L287.156534,236 Z" id="Path" fill="#F2F2F2" fill-rule="nonzero"></path>
                <path d="M161.179687,236 L141.820313,236 C141.367267,236 141,235.776142 141,235.5 C141,235.223858 141.367267,235 141.820313,235 L161.179687,235 C161.632733,235 162,235.223858 162,235.5 C162,235.776142 161.632733,236 161.179687,236 L161.179687,236 Z" id="Path" fill="#F2F2F2" fill-rule="nonzero"></path>
                <path d="M287.15655,264 L177.84523,264 C177.54347,264.000376 177.264361,263.905159 177.113298,263.750304 C176.962234,263.595449 176.962234,263.404551 177.113298,263.249696 C177.264361,263.094841 177.54347,262.999624 177.84523,263 L287.15655,263 C287.622374,263 288,263.223858 288,263.5 C288,263.776142 287.622374,264 287.15655,264 L287.15655,264 Z" id="Path" fill="#F2F2F2" fill-rule="nonzero"></path>
                <path d="M161.178093,264 L141.821907,264 C141.528474,264.000376 141.257066,263.905159 141.110171,263.750304 C140.963276,263.595449 140.963276,263.404551 141.110171,263.249696 C141.257066,263.094841 141.528474,262.999624 141.821907,263 L161.178093,263 C161.471526,262.999624 161.742934,263.094841 161.889829,263.249696 C162.036724,263.404551 162.036724,263.595449 161.889829,263.750304 C161.742934,263.905159 161.471526,264.000376 161.178093,264 L161.178093,264 Z" id="Path" fill="#F2F2F2" fill-rule="nonzero"></path>
                <polygon id="Path" fill="#6C63FF" fill-rule="nonzero" points="194.614412 149 167 176 194.614412 203 200.82752 196.848197 179.944423 176.170778 201 155.322581"></polygon>
                <polygon id="Path" fill="#6C63FF" fill-rule="nonzero" points="234.385588 149 262 176 234.385588 203 228.17248 196.848197 249.05596 176.170778 228 155.322581"></polygon>
                <circle id="Oval" fill="#6C63FF" fill-rule="nonzero" cx="82" cy="67" r="3"></circle>
                <circle id="Oval" fill="#6C63FF" fill-rule="nonzero" cx="90" cy="67" r="3"></circle>
                <circle id="Oval" fill="#6C63FF" fill-rule="nonzero" cx="99" cy="67" r="3"></circle>
                <rect id="Rectangle" fill="#000000" fill-rule="nonzero" opacity="0.1" x="74" y="72" width="281" height="1"></rect>
                <g id="Tree-with-background" transform="translate(359.000000, 173.000000)"></g>
                <g id="Figure" transform="translate(35.000000, 124.000000)"></g>
            </g>
        </g>
    </g>
</svg>